# xmcd
#
# Track frame offsets: 
#        150
#        12419
#        23323
#        33933
#        44855
#        54509
#        64447
#        74883
#        85236
#        96328
#        105251
#        114305
#        130328
#        140884
#        154269
#        164724
#
# Disc length: 2334 seconds
#
# Revision: 0
# Processed by: cddbd v1.5.2PL0 Copyright (c) Steve Scherf et al.
# Submitted via: ExactAudioCopyFreeDBPlugin 1.0
#
DISCID=e9091c10
DTITLE=Buck Owens - The Very Best Of Buck Owens, Vol 1 
DYEAR=1900
DGENRE=Country
TTITLE0=Under Your Spell Again
TTITLE1=Excuse Me (I Think I've Got A Heartache)
TTITLE2=Act Naturally
TTITLE3=Together Again
TTITLE4=I Don't Care (Just As Long As You Love Me)
TTITLE5=I've Got A Tiger By The Tail
TTITLE6=Only You (Can Break My Heart)
TTITLE7=Waitin' In Your Welfare Line
TTITLE8=Open Up Your Heart
TTITLE9=Sam's Place
TTITLE10=It Takes People Like You (To Make People Like Me)
TTITLE11=Sweet Rosie Jones
TTITLE12=Who's Gonna Mow Your Grass
TTITLE13=Tall Dark Stranger
TTITLE14=The Kansas City Song
TTITLE15=Rollin' In My Sweet Baby's Arms
EXTD=
EXTT0=
EXTT1=
EXTT2=
EXTT3=
EXTT4=
EXTT5=
EXTT6=
EXTT7=
EXTT8=
EXTT9=
EXTT10=
EXTT11=
EXTT12=
EXTT13=
EXTT14=
EXTT15=
PLAYORDER=
